<svg width="128" height="128" viewBox="0 0 128 128" fill="none" xmlns="http://www.w3.org/2000/svg">
<g filter="url(#filter0_dd)">
<rect x="24" y="24" width="80" height="80" rx="16" fill="#ECF0F3"/>
<rect x="24" y="24" width="80" height="80" rx="16" fill="#F3F6F9"/>
<rect x="24" y="24" width="80" height="80" rx="16" fill="#F1F3F6"/>
<g filter="url(#filter1_i)">
<path d="M59.7144 45.4286C59.7144 42.2727 62.2727 39.7143 65.4286 39.7143C68.5846 39.7143 71.1429 42.2727 71.1429 45.4286C71.1429 48.5845 68.5846 51.1429 65.4286 51.1429C62.2727 51.1429 59.7144 48.5845 59.7144 45.4286Z" fill="url(#paint0_linear)"/>
<path d="M59.7144 61.1429C59.7144 57.987 62.2727 55.4286 65.4286 55.4286C68.5846 55.4286 71.1429 57.987 71.1429 61.1429V82.5714C71.1429 85.7273 68.5846 88.2857 65.4286 88.2857C62.2727 88.2857 59.7144 85.7273 59.7144 82.5714V61.1429Z" fill="url(#paint1_linear)"/>
</g>
</g>
<defs>
<filter id="filter0_dd" x="0" y="0" width="128" height="128" filterUnits="userSpaceOnUse" color-interpolation-filters="sRGB">
<feFlood flood-opacity="0" result="BackgroundImageFix"/>
<feColorMatrix in="SourceAlpha" type="matrix" values="0 0 0 0 0 0 0 0 0 0 0 0 0 0 0 0 0 0 127 0"/>
<feOffset dx="8" dy="8"/>
<feGaussianBlur stdDeviation="8"/>
<feColorMatrix type="matrix" values="0 0 0 0 0 0 0 0 0 0 0 0 0 0 0 0 0 0 0.08 0"/>
<feBlend mode="normal" in2="BackgroundImageFix" result="effect1_dropShadow"/>
<feColorMatrix in="SourceAlpha" type="matrix" values="0 0 0 0 0 0 0 0 0 0 0 0 0 0 0 0 0 0 127 0"/>
<feOffset dx="-8" dy="-8"/>
<feGaussianBlur stdDeviation="8"/>
<feColorMatrix type="matrix" values="0 0 0 0 1 0 0 0 0 1 0 0 0 0 1 0 0 0 1 0"/>
<feBlend mode="normal" in2="effect1_dropShadow" result="effect2_dropShadow"/>
<feBlend mode="normal" in="SourceGraphic" in2="effect2_dropShadow" result="shape"/>
</filter>
<filter id="filter1_i" x="59.7144" y="39.7143" width="11.4286" height="49.5714" filterUnits="userSpaceOnUse" color-interpolation-filters="sRGB">
<feFlood flood-opacity="0" result="BackgroundImageFix"/>
<feBlend mode="normal" in="SourceGraphic" in2="BackgroundImageFix" result="shape"/>
<feColorMatrix in="SourceAlpha" type="matrix" values="0 0 0 0 0 0 0 0 0 0 0 0 0 0 0 0 0 0 127 0" result="hardAlpha"/>
<feOffset dy="1"/>
<feGaussianBlur stdDeviation="0.5"/>
<feComposite in2="hardAlpha" operator="arithmetic" k2="-1" k3="1"/>
<feColorMatrix type="matrix" values="0 0 0 0 0 0 0 0 0 0 0 0 0 0 0 0 0 0 0.1 0"/>
<feBlend mode="normal" in2="shape" result="effect1_innerShadow"/>
</filter>
<linearGradient id="paint0_linear" x1="65.4289" y1="39.7144" x2="55.0142" y2="87.1276" gradientUnits="userSpaceOnUse">
<stop stop-color="#11D700"/>
<stop offset="0.26495" stop-color="#FFF500"/>
<stop offset="0.61098" stop-color="#FFC700"/>
<stop offset="1" stop-color="#FF0000"/>
</linearGradient>
<linearGradient id="paint1_linear" x1="65.4289" y1="39.7144" x2="55.0142" y2="87.1276" gradientUnits="userSpaceOnUse">
<stop stop-color="#11D700"/>
<stop offset="0.26495" stop-color="#FFF500"/>
<stop offset="0.61098" stop-color="#FFC700"/>
<stop offset="1" stop-color="#FF0000"/>
</linearGradient>
</defs>
</svg>
