<svg width="123" height="43" viewBox="0 0 123 43" fill="none" xmlns="http://www.w3.org/2000/svg">
<path d="M0.984375 14.4062C0.984375 14.2188 1.23438 14.0156 1.73438 13.7969C2.23438 13.5781 2.78125 13.4062 3.375 13.2812C4 13.125 4.5625 13.0469 5.0625 13.0469C5.59375 13.0156 5.85938 13.125 5.85938 13.375C5.85938 13.8438 5.82812 14.5156 5.76562 15.3906C5.70312 16.2344 5.625 17.1406 5.53125 18.1094C5.4375 19.0469 5.34375 20 5.25 20.9688C5.15625 21.9062 5.09375 22.7031 5.0625 23.3594C5 24.0469 4.9375 24.7969 4.875 25.6094C4.8125 26.2969 4.76562 27.0625 4.73438 27.9062C4.70312 28.75 4.70312 29.6094 4.73438 30.4844C4.73438 30.6406 4.57812 30.7969 4.26562 30.9531C3.95312 31.1094 3.60938 31.2188 3.23438 31.2812C2.85938 31.375 2.5 31.4219 2.15625 31.4219C1.8125 31.4219 1.625 31.3594 1.59375 31.2344C1.53125 31.1094 1.46875 30.8906 1.40625 30.5781C1.34375 30.2656 1.28125 29.8281 1.21875 29.2656C1.15625 28.6719 1.10938 27.9219 1.07812 27.0156C1.04688 26.0781 1.0625 24.9531 1.125 23.6406C1.25 21.0469 1.26562 19.0469 1.17188 17.6406C1.07812 16.2031 1.01562 15.125 0.984375 14.4062ZM4.26562 5.07812C4.89062 5.07812 5.48438 5.26562 6.04688 5.64062C6.60938 6.01562 6.89062 6.51562 6.89062 7.14062C6.89062 7.60938 6.76562 8.0625 6.51562 8.5C6.29688 8.9375 6.01562 9.32812 5.67188 9.67188C5.32812 10.0156 4.9375 10.2969 4.5 10.5156C4.0625 10.7031 3.65625 10.7969 3.28125 10.7969C2.78125 10.7969 2.375 10.7188 2.0625 10.5625C1.75 10.375 1.5 10.1719 1.3125 9.95312C1.15625 9.70312 1.04688 9.4375 0.984375 9.15625C0.921875 8.875 0.890625 8.60938 0.890625 8.35938C0.890625 8.04688 0.9375 7.70312 1.03125 7.32812C1.125 6.92188 1.29688 6.5625 1.54688 6.25C1.79688 5.90625 2.14062 5.625 2.57812 5.40625C3.01562 5.1875 3.57812 5.07812 4.26562 5.07812ZM3.09375 9.4375C3.28125 9.4375 3.48438 9.375 3.70312 9.25C3.95312 9.09375 4.17188 8.92188 4.35938 8.73438C4.57812 8.54688 4.75 8.34375 4.875 8.125C5.03125 7.90625 5.10938 7.71875 5.10938 7.5625C5.10938 7.3125 4.98438 7.1875 4.73438 7.1875C4.57812 7.1875 4.375 7.25 4.125 7.375C3.90625 7.5 3.6875 7.65625 3.46875 7.84375C3.25 8 3.0625 8.1875 2.90625 8.40625C2.78125 8.59375 2.71875 8.78125 2.71875 8.96875C2.71875 9.28125 2.84375 9.4375 3.09375 9.4375ZM13.9688 29.7344C13.9375 29.9219 13.7656 30.125 13.4531 30.3438C13.1719 30.5312 12.8281 30.7031 12.4219 30.8594C12.0469 31.0156 11.6875 31.1094 11.3438 31.1406C11 31.2031 10.7656 31.1719 10.6406 31.0469C10.5156 30.9219 10.3125 30.6875 10.0312 30.3438C9.75 30 9.57812 29.4375 9.51562 28.6562C9.45312 27.8438 9.42188 26.8281 9.42188 25.6094C9.42188 24.3594 9.40625 22.9844 9.375 21.4844V19.6094C9.375 19.0469 9.35938 18.3906 9.32812 17.6406C9.32812 16.8906 9.3125 16.1094 9.28125 15.2969C9.5625 15.1406 9.84375 15 10.125 14.875C10.4375 14.7188 10.7188 14.5938 10.9688 14.5C11.25 14.375 11.5156 14.2812 11.7656 14.2188C12.4219 14.0312 12.9219 13.9219 13.2656 13.8906C13.6094 13.8594 13.8125 13.9688 13.875 14.2188C13.9062 14.4062 13.8906 14.8594 13.8281 15.5781C13.7656 16.2031 13.6875 17.1562 13.5938 18.4375C13.5 19.6875 13.3438 21.4375 13.125 23.6875C13.5312 22.6875 13.8594 21.8281 14.1094 21.1094C14.3906 20.3906 14.625 19.8125 14.8125 19.375C15 18.8438 15.1719 18.4219 15.3281 18.1094C15.4844 17.7031 15.6875 17.25 15.9375 16.75C16.1875 16.25 16.4375 15.7812 16.6875 15.3438C16.9688 14.9062 17.2188 14.5156 17.4375 14.1719C17.6875 13.8281 17.875 13.625 18 13.5625C18.0938 13.5 18.375 13.5 18.8438 13.5625C19.3125 13.625 19.8125 13.7812 20.3438 14.0312C20.875 14.25 21.3906 14.5781 21.8906 15.0156C22.3906 15.4219 22.7188 15.9219 22.875 16.5156C23.0625 17.2031 23.125 18.1094 23.0625 19.2344C23.0312 20.3594 22.9531 21.5156 22.8281 22.7031C22.7344 23.8906 22.6562 25.0156 22.5938 26.0781C22.5312 27.1406 22.5938 27.9531 22.7812 28.5156C22.8438 28.8281 22.9375 29.1094 23.0625 29.3594C23.125 29.6094 23.2031 29.8438 23.2969 30.0625C23.4219 30.25 23.5469 30.3906 23.6719 30.4844C22.9219 30.8281 22.3125 31.0781 21.8438 31.2344C21.375 31.3906 21.0156 31.5 20.7656 31.5625C20.4531 31.6562 20.2344 31.6875 20.1094 31.6562C19.8281 31.5625 19.5781 31.3281 19.3594 30.9531C19.1719 30.5781 19 29.9844 18.8438 29.1719C18.7812 28.9219 18.75 28.5156 18.75 27.9531C18.7812 27.3594 18.8281 26.7031 18.8906 25.9844C18.9531 25.2344 19.0156 24.4688 19.0781 23.6875C19.1719 22.875 19.2344 22.125 19.2656 21.4375C19.3281 20.7188 19.375 20.1094 19.4062 19.6094C19.4375 19.0781 19.4375 18.7188 19.4062 18.5312C19.25 17.9688 19.0312 17.5781 18.75 17.3594C18.4688 17.1094 18.25 17.0781 18.0938 17.2656C17.6875 17.7344 17.25 18.5 16.7812 19.5625C16.3438 20.5938 15.9219 21.7344 15.5156 22.9844C15.1094 24.2031 14.7656 25.4219 14.4844 26.6406C14.2031 27.8594 14.0312 28.8906 13.9688 29.7344ZM39.2344 25.0938C39.2344 25.4375 39.1094 25.9688 38.8594 26.6875C38.6406 27.375 38.2656 28.0781 37.7344 28.7969C37.2031 29.4844 36.5156 30.0938 35.6719 30.625C34.8594 31.1562 33.8594 31.4219 32.6719 31.4219C30.9844 31.4219 29.5625 30.9688 28.4062 30.0625C27.2812 29.125 26.4844 27.7969 26.0156 26.0781C25.6406 24.6406 25.5312 23.1094 25.6875 21.4844C25.875 19.8281 26.3281 18.2969 27.0469 16.8906C27.7656 15.4844 28.7656 14.2969 30.0469 13.3281C31.3281 12.3281 32.8906 11.7812 34.7344 11.6875C35.6719 11.6562 36.4531 11.8281 37.0781 12.2031C37.7031 12.5781 38.1875 13.0625 38.5312 13.6562C38.875 14.25 39.0781 14.9062 39.1406 15.625C39.2031 16.3125 39.125 16.9688 38.9062 17.5938C38.7188 18.2188 38.4062 18.75 37.9688 19.1875C37.5625 19.5938 37.0312 19.8125 36.375 19.8438C35.7188 19.9062 35.1719 19.8281 34.7344 19.6094C34.3281 19.3594 34 19.0625 33.75 18.7188C33.5312 18.375 33.375 18.0156 33.2812 17.6406C33.2188 17.2656 33.2188 16.9375 33.2812 16.6562C33.375 16.25 33.5312 15.875 33.75 15.5312C33.9375 15.2188 34.2031 14.9062 34.5469 14.5938C34.9219 14.2812 35.4062 14.0312 36 13.8438C35.9062 13.7812 35.8125 13.75 35.7188 13.75C35.625 13.75 35.5312 13.7344 35.4375 13.7031C35.3125 13.7031 35.2188 13.6875 35.1562 13.6562C34.6562 13.6562 34.0781 13.8281 33.4219 14.1719C32.7969 14.5156 32.1875 15.0625 31.5938 15.8125C31.0312 16.5625 30.5469 17.5312 30.1406 18.7188C29.7656 19.875 29.5781 21.2812 29.5781 22.9375C29.5781 23.6562 29.6562 24.375 29.8125 25.0938C29.9688 25.7812 30.2031 26.4062 30.5156 26.9688C30.8594 27.5 31.2656 27.9375 31.7344 28.2812C32.2344 28.5938 32.8125 28.75 33.4688 28.75C34.2188 28.75 34.875 28.5938 35.4375 28.2812C36.0312 27.9375 36.5312 27.5469 36.9375 27.1094C37.3438 26.6719 37.6562 26.2344 37.875 25.7969C38.125 25.3594 38.2969 25.0312 38.3906 24.8125C38.4844 24.625 38.6406 24.5312 38.8594 24.5312C39.1094 24.5312 39.2344 24.7188 39.2344 25.0938ZM54.8906 22.9375C54.8281 24.1562 54.6094 25.2812 54.2344 26.3125C53.8906 27.3438 53.4062 28.25 52.7812 29.0312C52.1562 29.7812 51.4062 30.375 50.5312 30.8125C49.6875 31.25 48.75 31.4844 47.7188 31.5156C46.8125 31.5469 45.9531 31.3281 45.1406 30.8594C44.3594 30.3906 43.6719 29.7344 43.0781 28.8906C42.4844 28.0469 42.0312 27.0469 41.7188 25.8906C41.4375 24.7031 41.3594 23.4219 41.4844 22.0469C41.5781 20.4531 41.875 19.0938 42.375 17.9688C42.875 16.8125 43.4062 15.8594 43.9688 15.1094C44.5312 14.3594 45.0469 13.8125 45.5156 13.4688C46.0156 13.0938 46.3281 12.875 46.4531 12.8125C46.6719 12.7188 46.875 12.7031 47.0625 12.7656C47.25 12.7969 47.4531 12.8438 47.6719 12.9062C47.7344 12.9375 47.7969 13.0156 47.8594 13.1406C47.9844 13.3594 48.0625 13.7656 48.0938 14.3594C48.25 14.0156 48.4531 13.7344 48.7031 13.5156C48.9531 13.2969 49.2031 13.1406 49.4531 13.0469C49.7656 12.9219 50.0781 12.8438 50.3906 12.8125C50.6094 12.7812 50.9844 12.9531 51.5156 13.3281C52.0781 13.7031 52.6094 14.2969 53.1094 15.1094C53.6406 15.9219 54.0938 16.9844 54.4688 18.2969C54.8438 19.5781 54.9844 21.125 54.8906 22.9375ZM51.7031 22.375C51.7344 21.625 51.7031 20.875 51.6094 20.125C51.5469 19.3438 51.4219 18.6406 51.2344 18.0156C51.0781 17.3594 50.875 16.8438 50.625 16.4688C50.375 16.0625 50.125 15.8594 49.875 15.8594C49.5938 15.9219 49.2812 16.0625 48.9375 16.2812C48.6562 16.4688 48.3438 16.7656 48 17.1719C47.6562 17.5781 47.3281 18.1562 47.0156 18.9062C46.9844 18.8125 46.9531 18.6406 46.9219 18.3906C46.8906 18.1719 46.8594 17.8906 46.8281 17.5469C46.8281 17.1719 46.8594 16.6719 46.9219 16.0469C46.4844 16.5781 46.1406 17.2031 45.8906 17.9219C45.6719 18.6406 45.5 19.3281 45.375 19.9844C45.25 20.7656 45.1562 21.5469 45.0938 22.3281C45.0625 23.1719 45.0938 24 45.1875 24.8125C45.3125 25.625 45.5 26.3438 45.75 26.9688C46.0312 27.5938 46.3594 28.0938 46.7344 28.4688C47.1094 28.8438 47.5625 29.0156 48.0938 28.9844C48.625 28.9531 49.0938 28.7344 49.5 28.3281C49.9062 27.9219 50.2656 27.4062 50.5781 26.7812C50.8906 26.1562 51.1406 25.4531 51.3281 24.6719C51.5156 23.8906 51.6406 23.125 51.7031 22.375ZM62.5781 31.4219C61.9219 31.4219 61.25 31.25 60.5625 30.9062C59.875 30.5625 59.2344 30.0469 58.6406 29.3594C58.0469 28.6406 57.5625 27.7656 57.1875 26.7344C56.8125 25.6719 56.625 24.4375 56.625 23.0312C56.625 20.9688 56.8906 19.2656 57.4219 17.9219C57.9531 16.5469 58.5938 15.4531 59.3438 14.6406C60.125 13.7969 60.9688 13.2031 61.875 12.8594C62.7812 12.5156 63.6094 12.3438 64.3594 12.3438C65.1406 12.3438 65.7812 12.4844 66.2812 12.7656C66.8125 13.0156 67.25 13.3125 67.5938 13.6562V12.7656C67.7812 12.6094 67.9844 12.4688 68.2031 12.3438C68.4531 12.2188 68.7031 12.125 68.9531 12.0625C69.2031 11.9688 69.4688 11.9219 69.75 11.9219H70.4531C70.6406 11.9531 70.8281 11.9844 71.0156 12.0156C71.2344 12.0469 71.3906 12.125 71.4844 12.25C71.2969 16.3438 71.1406 19.6562 71.0156 22.1875C70.8906 24.7188 70.7969 26.6875 70.7344 28.0938C70.6406 29.75 70.5781 30.9531 70.5469 31.7031C70.4844 33.0156 70.3125 34.3125 70.0312 35.5938C69.75 36.9062 69.3125 38.0781 68.7188 39.1094C68.125 40.1406 67.3438 40.9688 66.375 41.5938C65.4062 42.2188 64.2188 42.5312 62.8125 42.5312C61.5938 42.5312 60.6094 42.2969 59.8594 41.8281C59.1406 41.3594 58.5781 40.7812 58.1719 40.0938C57.7969 39.4062 57.5469 38.6719 57.4219 37.8906C57.2969 37.1406 57.2344 36.4531 57.2344 35.8281C57.2344 35.6719 57.3125 35.4375 57.4688 35.125C57.6562 34.8125 57.9062 34.4844 58.2188 34.1406C58.5625 33.8281 58.9844 33.5469 59.4844 33.2969C59.9844 33.0469 60.5469 32.8906 61.1719 32.8281C60.8906 33.6719 60.7188 34.4375 60.6562 35.125C60.5938 35.5 60.5781 35.875 60.6094 36.25C60.6094 37.2812 60.8125 38.1406 61.2188 38.8281C61.625 39.5156 62.25 39.8594 63.0938 39.8594C64 39.8594 64.7344 39.4688 65.2969 38.6875C65.8594 37.9375 66.2812 37.0156 66.5625 35.9219C66.875 34.8594 67.0781 33.7344 67.1719 32.5469C67.2969 31.3906 67.3594 30.4062 67.3594 29.5938V28.2344C67.1719 28.5781 66.9375 28.9375 66.6562 29.3125C66.4062 29.6875 66.0938 30.0312 65.7188 30.3438C65.3438 30.6562 64.8906 30.9062 64.3594 31.0938C63.8594 31.3125 63.2656 31.4219 62.5781 31.4219ZM64.5 15.0156C63.9688 15.0156 63.4531 15.25 62.9531 15.7188C62.4844 16.1875 62.0625 16.8125 61.6875 17.5938C61.3125 18.3438 61.0156 19.2031 60.7969 20.1719C60.5781 21.1406 60.4688 22.1094 60.4688 23.0781C60.4688 23.7031 60.5 24.3438 60.5625 25C60.6562 25.6562 60.8125 26.2656 61.0312 26.8281C61.2812 27.3594 61.5938 27.7969 61.9688 28.1406C62.3438 28.4844 62.8438 28.6562 63.4688 28.6562C63.9375 28.625 64.375 28.4375 64.7812 28.0938C65.125 27.8125 65.4688 27.3594 65.8125 26.7344C66.1875 26.1094 66.4844 25.2188 66.7031 24.0625C66.9531 24.3125 67.1406 24.5469 67.2656 24.7656C67.4219 24.9844 67.5469 25.1875 67.6406 25.375C67.6719 25.125 67.6875 24.8281 67.6875 24.4844C67.7188 24.1406 67.7344 23.75 67.7344 23.3125C67.7344 22.4688 67.6875 21.5625 67.5938 20.5938C67.5 19.5938 67.3281 18.6875 67.0781 17.875C66.8594 17.0625 66.5312 16.3906 66.0938 15.8594C65.6875 15.2969 65.1562 15.0156 64.5 15.0156ZM79.2656 29.7344C79.2344 29.9219 79.0625 30.125 78.75 30.3438C78.4688 30.5312 78.125 30.7031 77.7188 30.8594C77.3438 31.0156 76.9844 31.1094 76.6406 31.1406C76.2969 31.2031 76.0625 31.1719 75.9375 31.0469C75.8125 30.9219 75.6094 30.6875 75.3281 30.3438C75.0469 30 74.875 29.4375 74.8125 28.6562C74.75 27.8438 74.7188 26.8281 74.7188 25.6094C74.7188 24.3594 74.7031 22.9844 74.6719 21.4844V19.6094C74.6719 19.0469 74.6562 18.3906 74.625 17.6406C74.625 16.8906 74.6094 16.1094 74.5781 15.2969C74.8594 15.1406 75.1406 15 75.4219 14.875C75.7344 14.7188 76.0156 14.5938 76.2656 14.5C76.5469 14.375 76.8125 14.2812 77.0625 14.2188C77.7188 14.0312 78.2188 13.9219 78.5625 13.8906C78.9062 13.8594 79.1094 13.9688 79.1719 14.2188C79.2031 14.4062 79.1875 14.8594 79.125 15.5781C79.0625 16.2031 78.9844 17.1562 78.8906 18.4375C78.7969 19.6875 78.6406 21.4375 78.4219 23.6875C78.8281 22.6875 79.1562 21.8281 79.4062 21.1094C79.6875 20.3906 79.9219 19.8125 80.1094 19.375C80.2969 18.8438 80.4688 18.4219 80.625 18.1094C80.7812 17.7031 80.9844 17.25 81.2344 16.75C81.4844 16.25 81.7344 15.7812 81.9844 15.3438C82.2656 14.9062 82.5156 14.5156 82.7344 14.1719C82.9844 13.8281 83.1719 13.625 83.2969 13.5625C83.3906 13.5 83.6719 13.5 84.1406 13.5625C84.6094 13.625 85.1094 13.7812 85.6406 14.0312C86.1719 14.25 86.6875 14.5781 87.1875 15.0156C87.6875 15.4219 88.0156 15.9219 88.1719 16.5156C88.3594 17.2031 88.4219 18.1094 88.3594 19.2344C88.3281 20.3594 88.25 21.5156 88.125 22.7031C88.0312 23.8906 87.9531 25.0156 87.8906 26.0781C87.8281 27.1406 87.8906 27.9531 88.0781 28.5156C88.1406 28.8281 88.2344 29.1094 88.3594 29.3594C88.4219 29.6094 88.5 29.8438 88.5938 30.0625C88.7188 30.25 88.8438 30.3906 88.9688 30.4844C88.2188 30.8281 87.6094 31.0781 87.1406 31.2344C86.6719 31.3906 86.3125 31.5 86.0625 31.5625C85.75 31.6562 85.5312 31.6875 85.4062 31.6562C85.125 31.5625 84.875 31.3281 84.6562 30.9531C84.4688 30.5781 84.2969 29.9844 84.1406 29.1719C84.0781 28.9219 84.0469 28.5156 84.0469 27.9531C84.0781 27.3594 84.125 26.7031 84.1875 25.9844C84.25 25.2344 84.3125 24.4688 84.375 23.6875C84.4688 22.875 84.5312 22.125 84.5625 21.4375C84.625 20.7188 84.6719 20.1094 84.7031 19.6094C84.7344 19.0781 84.7344 18.7188 84.7031 18.5312C84.5469 17.9688 84.3281 17.5781 84.0469 17.3594C83.7656 17.1094 83.5469 17.0781 83.3906 17.2656C82.9844 17.7344 82.5469 18.5 82.0781 19.5625C81.6406 20.5938 81.2188 21.7344 80.8125 22.9844C80.4062 24.2031 80.0625 25.4219 79.7812 26.6406C79.5 27.8594 79.3281 28.8906 79.2656 29.7344ZM91.9688 14.4062C91.9688 14.2188 92.2188 14.0156 92.7188 13.7969C93.2188 13.5781 93.7656 13.4062 94.3594 13.2812C94.9844 13.125 95.5469 13.0469 96.0469 13.0469C96.5781 13.0156 96.8438 13.125 96.8438 13.375C96.8438 13.8438 96.8125 14.5156 96.75 15.3906C96.6875 16.2344 96.6094 17.1406 96.5156 18.1094C96.4219 19.0469 96.3281 20 96.2344 20.9688C96.1406 21.9062 96.0781 22.7031 96.0469 23.3594C95.9844 24.0469 95.9219 24.7969 95.8594 25.6094C95.7969 26.2969 95.75 27.0625 95.7188 27.9062C95.6875 28.75 95.6875 29.6094 95.7188 30.4844C95.7188 30.6406 95.5625 30.7969 95.25 30.9531C94.9375 31.1094 94.5938 31.2188 94.2188 31.2812C93.8438 31.375 93.4844 31.4219 93.1406 31.4219C92.7969 31.4219 92.6094 31.3594 92.5781 31.2344C92.5156 31.1094 92.4531 30.8906 92.3906 30.5781C92.3281 30.2656 92.2656 29.8281 92.2031 29.2656C92.1406 28.6719 92.0938 27.9219 92.0625 27.0156C92.0312 26.0781 92.0469 24.9531 92.1094 23.6406C92.2344 21.0469 92.25 19.0469 92.1562 17.6406C92.0625 16.2031 92 15.125 91.9688 14.4062ZM95.25 5.07812C95.875 5.07812 96.4688 5.26562 97.0312 5.64062C97.5938 6.01562 97.875 6.51562 97.875 7.14062C97.875 7.60938 97.75 8.0625 97.5 8.5C97.2812 8.9375 97 9.32812 96.6562 9.67188C96.3125 10.0156 95.9219 10.2969 95.4844 10.5156C95.0469 10.7031 94.6406 10.7969 94.2656 10.7969C93.7656 10.7969 93.3594 10.7188 93.0469 10.5625C92.7344 10.375 92.4844 10.1719 92.2969 9.95312C92.1406 9.70312 92.0312 9.4375 91.9688 9.15625C91.9062 8.875 91.875 8.60938 91.875 8.35938C91.875 8.04688 91.9219 7.70312 92.0156 7.32812C92.1094 6.92188 92.2812 6.5625 92.5312 6.25C92.7812 5.90625 93.125 5.625 93.5625 5.40625C94 5.1875 94.5625 5.07812 95.25 5.07812ZM94.0781 9.4375C94.2656 9.4375 94.4688 9.375 94.6875 9.25C94.9375 9.09375 95.1562 8.92188 95.3438 8.73438C95.5625 8.54688 95.7344 8.34375 95.8594 8.125C96.0156 7.90625 96.0938 7.71875 96.0938 7.5625C96.0938 7.3125 95.9688 7.1875 95.7188 7.1875C95.5625 7.1875 95.3594 7.25 95.1094 7.375C94.8906 7.5 94.6719 7.65625 94.4531 7.84375C94.2344 8 94.0469 8.1875 93.8906 8.40625C93.7656 8.59375 93.7031 8.78125 93.7031 8.96875C93.7031 9.28125 93.8281 9.4375 94.0781 9.4375ZM117.703 10.1406C117.359 10.0781 116.891 10.0156 116.297 9.95312C115.734 9.89062 115.156 9.84375 114.562 9.8125C113.875 9.78125 113.141 9.76562 112.359 9.76562C111.578 9.70312 110.594 9.70312 109.406 9.76562C108.25 9.79688 107.031 9.8125 105.75 9.8125C105.719 10.625 105.656 11.4531 105.562 12.2969C105.5 13.1406 105.438 13.9688 105.375 14.7812C105.219 16.2812 105.078 17.8125 104.953 19.375C104.859 20.9375 104.812 22.4219 104.812 23.8281C104.812 25.2344 104.891 26.5156 105.047 27.6719C105.234 28.7969 105.562 29.6875 106.031 30.3438C105.656 30.625 105.25 30.8438 104.812 31C104.375 31.125 103.984 31.2188 103.641 31.2812C103.234 31.375 102.828 31.4219 102.422 31.4219C102.047 31.4219 101.734 31.2969 101.484 31.0469C101.234 30.7969 101.094 30.3594 101.062 29.7344C101 28.6719 100.984 27.6094 101.016 26.5469C101.078 25.4531 101.141 24.3125 101.203 23.125C101.297 21.9375 101.391 20.6719 101.484 19.3281C101.578 17.9531 101.672 16.4531 101.766 14.8281C101.859 13.1406 101.906 11.5 101.906 9.90625C100.719 9.9375 99.7188 9.95312 98.9062 9.95312C98.0938 9.95312 97.6406 9.9375 97.5469 9.90625C97.4531 9.84375 97.3438 9.70312 97.2188 9.48438C97.0938 9.29688 96.9375 9.01562 96.75 8.64062C96.5312 8.26562 96.2656 7.73438 95.9531 7.04688C96.5469 7.04688 97.2031 7.04688 97.9219 7.04688C98.6094 7.04688 99.25 7.03125 99.8438 7C100.531 6.96875 101.219 6.9375 101.906 6.90625C101.875 6.40625 101.859 5.875 101.859 5.3125C101.828 4.875 101.812 4.39062 101.812 3.85938C101.812 3.29688 101.797 2.78125 101.766 2.3125C101.766 2.125 101.984 1.90625 102.422 1.65625C102.891 1.375 103.391 1.125 103.922 0.90625C104.453 0.6875 104.938 0.546875 105.375 0.484375C105.844 0.421875 106.078 0.53125 106.078 0.8125C106.078 1.09375 106.062 1.78125 106.031 2.875C106.031 3.9375 106 5.23438 105.938 6.76562C106.25 6.76562 106.484 6.75 106.641 6.71875C108.297 6.65625 109.625 6.59375 110.625 6.53125C111.656 6.4375 112.5 6.42188 113.156 6.48438C113.812 6.54688 114.391 6.70312 114.891 6.95312C115.391 7.20312 115.953 7.60938 116.578 8.17188C116.797 8.35938 116.984 8.5625 117.141 8.78125C117.297 8.96875 117.422 9.1875 117.516 9.4375C117.641 9.65625 117.703 9.89062 117.703 10.1406ZM122.766 22.9375C122.703 24.1562 122.484 25.2812 122.109 26.3125C121.766 27.3438 121.281 28.25 120.656 29.0312C120.031 29.7812 119.281 30.375 118.406 30.8125C117.562 31.25 116.625 31.4844 115.594 31.5156C114.688 31.5469 113.828 31.3281 113.016 30.8594C112.234 30.3906 111.547 29.7344 110.953 28.8906C110.359 28.0469 109.906 27.0469 109.594 25.8906C109.312 24.7031 109.234 23.4219 109.359 22.0469C109.453 20.4531 109.75 19.0938 110.25 17.9688C110.75 16.8125 111.281 15.8594 111.844 15.1094C112.406 14.3594 112.922 13.8125 113.391 13.4688C113.891 13.0938 114.203 12.875 114.328 12.8125C114.547 12.7188 114.75 12.7031 114.938 12.7656C115.125 12.7969 115.328 12.8438 115.547 12.9062C115.609 12.9375 115.672 13.0156 115.734 13.1406C115.859 13.3594 115.938 13.7656 115.969 14.3594C116.125 14.0156 116.328 13.7344 116.578 13.5156C116.828 13.2969 117.078 13.1406 117.328 13.0469C117.641 12.9219 117.953 12.8438 118.266 12.8125C118.484 12.7812 118.859 12.9531 119.391 13.3281C119.953 13.7031 120.484 14.2969 120.984 15.1094C121.516 15.9219 121.969 16.9844 122.344 18.2969C122.719 19.5781 122.859 21.125 122.766 22.9375ZM119.578 22.375C119.609 21.625 119.578 20.875 119.484 20.125C119.422 19.3438 119.297 18.6406 119.109 18.0156C118.953 17.3594 118.75 16.8438 118.5 16.4688C118.25 16.0625 118 15.8594 117.75 15.8594C117.469 15.9219 117.156 16.0625 116.812 16.2812C116.531 16.4688 116.219 16.7656 115.875 17.1719C115.531 17.5781 115.203 18.1562 114.891 18.9062C114.859 18.8125 114.828 18.6406 114.797 18.3906C114.766 18.1719 114.734 17.8906 114.703 17.5469C114.703 17.1719 114.734 16.6719 114.797 16.0469C114.359 16.5781 114.016 17.2031 113.766 17.9219C113.547 18.6406 113.375 19.3281 113.25 19.9844C113.125 20.7656 113.031 21.5469 112.969 22.3281C112.938 23.1719 112.969 24 113.062 24.8125C113.188 25.625 113.375 26.3438 113.625 26.9688C113.906 27.5938 114.234 28.0938 114.609 28.4688C114.984 28.8438 115.438 29.0156 115.969 28.9844C116.5 28.9531 116.969 28.7344 117.375 28.3281C117.781 27.9219 118.141 27.4062 118.453 26.7812C118.766 26.1562 119.016 25.4531 119.203 24.6719C119.391 23.8906 119.516 23.125 119.578 22.375Z" fill="#BCC3CE"/>
</svg>
